<?xml version="1.0" encoding="utf-8"?>
<!-- Generator: Adobe Illustrator 25.0.1, SVG Export Plug-In . SVG Version: 6.00 Build 0)  -->
<svg version="1.1" id="Layer_1" xmlns="http://www.w3.org/2000/svg" xmlns:xlink="http://www.w3.org/1999/xlink" x="0px" y="0px"
	 viewBox="0 0 1080 1080" style="enable-background:new 0 0 1080 1080;" xml:space="preserve">
<style type="text/css">
	.st0{display:none;}
	.st1{fill:none;stroke:#000000;stroke-miterlimit:10;}
	.st2{fill:url(#SVGID_1_);}
	.st3{fill:url(#SVGID_2_);}
	.st4{fill:#F9CD5F;}
	.st5{fill:#B58E37;}
	.st6{fill:url(#SVGID_3_);}
	.st7{fill:url(#SVGID_4_);}
	.st8{fill:url(#SVGID_5_);}
	.st9{fill:url(#SVGID_6_);}
</style>
<rect class="st0" width="1080" height="1080"/>
<g>
	<g>
		<linearGradient id="SVGID_1_" gradientUnits="userSpaceOnUse" x1="558.817" y1="494.8835" x2="717.826" y2="494.8835">
			<stop  offset="0" style="stop-color:#F9CD5F"/>
			<stop  offset="1" style="stop-color:#8E7433"/>
		</linearGradient>
		<path class="st2" d="M701.42,443.14c-6.94-30.92,8.33-44.97,16.41-58.05c-22.29-22.72-44.59-45.43-66.88-68.15
			c-5.68,3.15-8.2,5.68-16.41,6.31c-25.24-0.84-50.48-1.68-75.72-2.52c0.42,117.36,0.84,234.73,1.26,352.09
			c0.28-0.28,0.72-0.73,1.26-1.26c9.19-9.09,26.38-23.88,58.05-37.86c16.96-7.48,17.34-6.98,26.5-10.1
			c64.99-22.08,77.57-100.9,61.84-152.7C705.54,463.69,704.23,455.66,701.42,443.14z M607.4,371.84c9.67,0,19.35,0,29.03,0
			c5.89,6.31,11.78,12.62,17.67,18.93c-3.79,5.05-3.79,54.27-1.26,64.36c-15.14,0-30.29,0-45.43,0
			C607.4,427.37,607.4,399.6,607.4,371.84z M608.03,584.48c0-23.98,0-47.96,0-71.93c19.56-0.63,37.23-1.89,57.42-1.89
			C669.24,556.09,640.21,580.07,608.03,584.48z"/>
		<linearGradient id="SVGID_2_" gradientUnits="userSpaceOnUse" x1="388.4501" y1="494.8835" x2="547.4592" y2="494.8835">
			<stop  offset="0" style="stop-color:#8E7433"/>
			<stop  offset="1" style="stop-color:#F9CD5F"/>
		</linearGradient>
		<path class="st3" d="M471.74,323.25c-8.2-0.63-10.73-3.15-16.41-6.31c-22.29,22.72-44.59,45.43-66.88,68.15
			c8.08,13.08,23.35,27.13,16.41,58.05c-2.81,12.52-4.12,20.55-6.31,27.76c-15.74,51.8-3.15,130.61,61.84,152.7
			c9.17,3.11,9.55,2.61,26.5,10.1c31.67,13.98,48.86,28.77,58.05,37.86c0.54,0.54,0.98,0.98,1.26,1.26
			c0.42-117.36,0.84-234.73,1.26-352.09C522.22,321.57,496.98,322.41,471.74,323.25z M496.98,583.22
			c-9.14-0.32-59.94-9.46-54.9-73.83c1.98-25.23,23.98-69.41,8.2-116.73c6.73-6.73,13.46-13.46,20.19-20.19
			c9.46-0.63,19.59-0.63,28.39-0.63C498.45,442.51,497.4,512.55,496.98,583.22z"/>
		<path class="st4" d="M608.81,255.84c-2.5,0.43-4.55,2.42-5.05,4.9c-0.49,2.38,0.39,4.55,1.95,5.97
			c-14.43,20.36-21.71,28.75-24.17,27.52c-2.07-1.03-1.41-15.37-1.28-22.28c2.09-0.62,3.55-2.71,3.09-5.09
			c-0.32-1.66-1.63-3.04-3.28-3.42c-2.9-0.67-5.47,1.51-5.47,4.3c0,1.78,1.06,3.31,2.58,4.01c-2.6,6.68-5.76,13.93-8.42,20.67
			c-0.28,0.72-1.15,0.99-1.8,0.57c-9.35-6.05-8.92-44.18-10.47-57.81c2.83-0.99,4.75-3.91,4.11-7.21c-0.47-2.41-2.4-4.38-4.81-4.89
			c-4.08-0.86-7.68,2.23-7.68,6.16c0,3.19,2.37,5.8,5.44,6.22c-2.02,15.38-5.78,55.93-10.49,56.88
			c-3.15,0.63-8.79-14.57-10.32-20.52c1.89-0.77,3.12-2.81,2.64-5.06c-0.35-1.62-1.65-2.95-3.27-3.32c-2.89-0.66-5.46,1.52-5.46,4.3
			c0,2.06,1.41,3.77,3.32,4.26c0.66,8.88,0.69,21.57-2.68,22.24c-3.15,0.63-15.77-14.51-23.58-28.15c1.28-1.53,1.9-3.64,1.21-5.93
			c-0.62-2.06-2.33-3.7-4.42-4.22c-4.18-1.03-7.92,2.1-7.92,6.11c0,1.11,0.41,2.19,1.08,3.07c2.46,3.21,4.55,3.47,6.4,3.12
			c4.87,15.81,9.73,31.63,14.6,47.44c10.33-1.97,22.66-3.54,36.6-3.79c17.2-0.3,32.16,1.5,44.17,3.79l13.38-47.44
			c6.18,1.38,7.45-5.48,7.44-6.25C616.21,258.17,612.77,255.15,608.81,255.84z"/>
	</g>
	<g>
		<path class="st4" d="M349.37,760.22v-65.27h6.79h21.13c8.98,0,15.8,2.64,20.46,7.91c4.66,5.27,6.99,12.98,6.99,23.12
			c0,11.19-2.42,19.7-7.27,25.52c-4.85,5.82-11.95,8.73-21.31,8.73h-20H349.37z M363,748.99h11.48c5.54,0,9.7-1.87,12.48-5.61
			c2.77-3.74,4.16-9.35,4.16-16.84c0-6.8-1.29-11.9-3.88-15.28c-2.59-3.38-6.46-5.08-11.63-5.08H363V748.99z"/>
		<path class="st4" d="M425.61,761.44c-4.49,0-8.1-1.28-10.82-3.83c-2.72-2.55-4.08-5.92-4.08-10.1c0-4.39,1.23-7.91,3.7-10.56
			c2.47-2.65,6.05-4.32,10.74-5l8.42-1.17c2.18-0.31,4-0.8,5.46-1.48c0.61-0.31,1.09-0.84,1.43-1.61c0.34-0.77,0.46-1.56,0.36-2.37
			c-0.17-1.36-0.87-2.42-2.09-3.16c-1.43-0.92-3.5-1.38-6.23-1.38c-2.45,0-4.35,0.59-5.72,1.76c-1.36,1.17-2.08,2.85-2.14,5.03
			H412.4c0.27-5.65,2.2-9.88,5.79-12.71c3.59-2.82,8.84-4.24,15.74-4.24c6.02,0,10.77,1.27,14.24,3.8s5.21,6,5.21,10.38v27
			c0,2.14,0.18,3.66,0.54,4.54c0.36,0.89,1.08,1.57,2.17,2.04v0.05v1.73h-6.89h-6.89c-0.58-1.94-0.95-3.84-1.12-5.71l-0.05-0.1
			C437.15,759.08,431.97,761.44,425.61,761.44z M440.92,742.36v-5.51c-1.5,0.82-3.45,1.48-5.87,1.99l-4.69,0.87
			c-2.21,0.41-3.9,1.17-5.05,2.27c-1.16,1.11-1.73,2.51-1.73,4.21c0,1.94,0.52,3.45,1.56,4.54c1.04,1.09,2.48,1.63,4.31,1.63
			c4.12,0,7.38-1.43,9.8-4.29c0.48-0.58,0.87-1.41,1.17-2.5C440.75,744.48,440.92,743.41,440.92,742.36z"/>
		<path class="st4" d="M464.5,760.22v-48.33h6.02h6.07v8.67c0.48-0.95,0.99-1.87,1.53-2.75c2.99-4.8,6.85-7.2,11.58-7.2l2.91,0.05
			v13.01c-1.12-0.1-2.4-0.15-3.83-0.15c-3.88,0-6.77,0.96-8.68,2.88s-2.86,4.82-2.86,8.7v25.11h-6.38H464.5z"/>
		<path class="st4" d="M500.32,760.22v-65.27h6.33h6.38v35.26l15.92-18.32h7.86h7.86l-17.45,18.32l17.86,30.01h-7.5h-7.6
			l-11.63-20.77l-5.31,5.56v15.21h-6.33H500.32z"/>
		<path class="st4" d="M573.75,760.22v-65.27h6.53h25.06c6.29,0,11.22,1.45,14.77,4.36s5.33,6.97,5.33,12.17
			c0,5.41-1.99,9.53-5.97,12.35c-0.65,0.48-1.38,0.9-2.19,1.28c1.53,0.58,2.89,1.29,4.08,2.14c4.19,2.86,6.28,7.04,6.28,12.55
			c0,6.67-2.07,11.74-6.2,15.21c-4.13,3.47-10.16,5.21-18.09,5.21h-23.07H573.75z M586.77,706.17v14.34h15.62
			c3.4,0,5.95-0.64,7.63-1.91c1.68-1.28,2.53-3.19,2.53-5.74c0-2.25-0.88-3.92-2.65-5.03c-1.77-1.11-4.46-1.66-8.06-1.66H586.77z
			 M586.77,731.49v17.4h16.58c3.54,0,6.2-0.77,7.99-2.3c1.79-1.53,2.68-3.86,2.68-6.99c0-2.72-0.91-4.75-2.73-6.1
			c-1.82-1.34-4.55-2.02-8.19-2.02H586.77z"/>
		<path class="st4" d="M638.77,760.22v-65.27h6.33h6.38v65.27h-6.33H638.77z"/>
		<path class="st4" d="M676.48,711.89v30.26c0,2.96,0.64,5.15,1.91,6.56c1.28,1.41,3.22,2.12,5.84,2.12c3.33,0,5.88-1,7.65-3.01
			c1.77-2.01,2.65-4.9,2.65-8.68v-27.25h6.38h6.38v48.33h-6.02h-6.12v-7.25c-0.44,0.89-0.97,1.72-1.58,2.5
			c-3.13,3.98-7.67,5.97-13.62,5.97c-5.1,0-9.08-1.5-11.94-4.49c-2.86-2.99-4.29-7.16-4.29-12.5v-32.56h6.38H676.48z"/>
		<path class="st4" d="M738.33,761.44c-7.35,0-13.01-2.26-16.99-6.79s-5.97-10.97-5.97-19.34c0-7.72,2.02-13.77,6.07-18.14
			c4.05-4.37,9.68-6.56,16.89-6.56c7.35,0,13.01,2.23,16.99,6.68c3.98,4.46,5.97,10.8,5.97,19.03c0.07,0.95,0,1.91-0.2,2.86h-32.91
			c0.31,3.84,1.16,6.7,2.55,8.57c1.77,2.38,4.73,3.57,8.88,3.57c1.9,0,3.68-0.54,5.33-1.63c1.65-1.09,2.65-2.42,2.99-3.98h12.96
			c-1.12,4.93-3.67,8.79-7.65,11.56C749.25,760.06,744.28,761.44,738.33,761.44z M748.02,731.08c-0.27-2.89-1.04-5.15-2.3-6.79
			c-1.63-2.14-4.17-3.21-7.6-3.21c-3.27,0-5.77,1.26-7.5,3.78c-1.05,1.6-1.82,3.67-2.3,6.23H748.02z"/>
	</g>
	<g>
		<rect x="360.97" y="784.47" class="st4" width="4.79" height="5.15"/>
		<path class="st4" d="M371.98,819.95h-8c-2.75,0-4.81-0.65-6.17-1.94c-1.36-1.29-2.04-2.94-2.04-4.95v-10.91h-4.44v11.27
			c0,3.19,1.05,5.74,3.16,7.65c2.11,1.9,4.96,2.86,8.56,2.86h13.36v-33.7h-4.44V819.95z"/>
		<path class="st4" d="M458.24,802.41c0-2.68,0.84-4.74,2.52-6.17c1.68-1.43,3.78-2.14,6.3-2.14c2.17,0,4.64,0.65,7.39,1.94
			l1.48-3.82c-1.97-0.85-3.65-1.48-5.05-1.89c-1.39-0.41-2.87-0.61-4.44-0.61c-2.58,0-4.84,0.56-6.78,1.68
			c-1.94,1.12-3.42,2.64-4.46,4.56c-1.04,1.92-1.56,4.04-1.56,6.35c0,2.89,1,5.73,3.01,8.51h-6.93h0h-6.63h-1.33h-5.3h-1.33h-5.3
			h-1.33h-5.3h-1.33h-5.3h-1.02c-1.46,0-2.54-0.36-3.24-1.07c-0.7-0.71-1.05-1.89-1.05-3.52v-31.46h-4.44v31.76
			c0,0.71,0.05,1.41,0.15,2.09c-1.97,1.39-4.49,2.12-7.54,2.19h-0.66l-5.35-24.22h-4.64l5.61,24.22h-13.36l1.83,4.03h15.85
			c3.36,0,6.51-1.05,9.43-3.16c1.29,2.11,3.47,3.16,6.53,3.16h0.56h1.33h5.3h1.33h5.3h1.33h5.3h1.33h5.3h1.33h6.63h0h26.82
			l1.02-4.03H461.8C459.42,808.38,458.24,805.57,458.24,802.41z"/>
		<path class="st4" d="M502.43,795.07c1.39-3.5,2.09-7.31,2.09-11.42v-8.87h-4.44v8.87c0,3.43-0.36,6.41-1.07,8.92
			c-4.15-2.75-9.16-5.03-15.04-6.83v4.38c5.13,1.43,9.5,3.48,13.1,6.17c-3.2,5.13-8.65,9.98-16.36,14.53l1.83,4.03h26.15
			c0.34-1.7,0.51-3.33,0.51-4.89c0-2.68-0.6-5.34-1.78-7.95C506.24,799.39,504.58,797.08,502.43,795.07z M504.58,810.83h-17.74
			c5.98-3.64,10.42-7.66,13.31-12.08c1.67,1.77,2.84,3.56,3.52,5.38c0.68,1.82,1.02,3.75,1.02,5.79
			C504.68,810.32,504.64,810.62,504.58,810.83z"/>
		<rect x="516.66" y="775.8" class="st4" width="4.44" height="39.05"/>
		<path class="st4" d="M541.84,789.72c-2.69,0-5.02,0.59-7.01,1.76c-1.99,1.17-3.5,2.73-4.54,4.66c-1.04,1.94-1.55,4.01-1.55,6.22
			c0,2.28,0.48,4.37,1.45,6.27c0.97,1.9,2.38,3.42,4.23,4.54c1.85,1.12,4.05,1.68,6.6,1.68h1.68l1.79-4.03h-3.21
			c-2.52,0-4.47-0.79-5.86-2.37c-1.39-1.58-2.09-3.51-2.09-5.79c0-2.58,0.73-4.72,2.19-6.4c1.46-1.68,3.48-2.52,6.07-2.52
			c1.36,0,2.87,0.19,4.54,0.56v20.54c0,2.45-0.74,4.26-2.22,5.43s-3.77,2-6.86,2.47l1.84,4.03c3.91-0.65,6.84-1.93,8.79-3.85
			c1.96-1.92,2.93-4.7,2.93-8.34v-23.76c-0.71-0.13-1.19-0.22-1.43-0.25C546.19,790.01,543.74,789.72,541.84,789.72z"/>
		<rect x="575.23" y="780.08" class="st4" width="4.79" height="5.15"/>
		<rect x="584.82" y="780.08" class="st4" width="4.79" height="5.15"/>
		<path class="st4" d="M610.87,790.23h-4.38v20.6h-10.09h0h-1.02c-1.46,0-2.54-0.36-3.24-1.07c-0.7-0.71-1.04-1.89-1.04-3.52
			l0.05-15.5l-2.5-0.41c-2.55-0.41-4.64-0.61-6.27-0.61c-2.69,0-5.02,0.59-7.01,1.76c-1.99,1.17-3.5,2.73-4.54,4.66
			c-1.04,1.94-1.56,4.01-1.56,6.22c0,2.28,0.49,4.37,1.48,6.27c0.99,1.9,2.4,3.42,4.26,4.54c1.85,1.12,4.04,1.68,6.55,1.68h2.14
			l1.78-4.03h-3.67c-2.52,0-4.47-0.79-5.86-2.37c-1.39-1.58-2.09-3.51-2.09-5.79c0-2.58,0.73-4.72,2.19-6.4
			c1.46-1.68,3.48-2.52,6.07-2.52c1.26,0,2.77,0.2,4.54,0.61v12.18c0,2.52,0.65,4.53,1.94,6.04c1.29,1.51,3.26,2.27,5.91,2.27h1.89
			h0h14.48V790.23z"/>
		<rect x="606.99" y="820.61" class="st4" width="4.79" height="5.15"/>
		<rect x="597.41" y="820.61" class="st4" width="4.79" height="5.15"/>
		<path class="st4" d="M677.09,802.41c0-2.68,0.84-4.74,2.52-6.17s3.78-2.14,6.3-2.14c2.17,0,4.64,0.65,7.39,1.94l1.48-3.82
			c-1.97-0.85-3.65-1.48-5.05-1.89c-1.39-0.41-2.87-0.61-4.44-0.61c-2.58,0-4.84,0.56-6.78,1.68c-1.94,1.12-3.42,2.64-4.46,4.56
			c-1.04,1.92-1.55,4.04-1.55,6.35c0,2.89,1,5.73,3.01,8.51h-6.93h0h-6.63h-1.33h-5.3h-1.33h-5.3h-1.33h-5.3h-1.33h-5.3h-1.33h-5.3
			h-1.02c-1.43,0-2.49-0.36-3.19-1.07c-0.7-0.71-1.05-1.89-1.05-3.52V775.8h-4.49v30.74c0,2.48,0.65,4.49,1.96,6.02
			s3.29,2.29,5.94,2.29h0.51h1.33h5.3h1.33h5.3h1.33h5.3h1.33h5.3h1.33h5.3h1.33h6.63h0h26.81l1.02-4.03h-15.75
			C678.28,808.38,677.09,805.57,677.09,802.41z"/>
		<path class="st4" d="M751.72,775.8v35.02h-6.42c-3.03,0-5.13-1.12-6.32-3.36c0.27-0.85,0.41-1.84,0.41-2.96v-28.7h-4.43v28.29
			c0,1.94-0.6,3.54-1.79,4.82c-1.19,1.27-2.72,1.91-4.59,1.91h-1.02c-1.73,0-3.03-0.24-3.87-0.71c-0.85-0.48-1.48-1.27-1.89-2.4
			l-6.98-18h-4.89l7.44,18.71c-2.17,1.6-5.1,2.4-8.77,2.4h-9.69l1.78,4.03h8.05c3.57,0,6.88-1.17,9.94-3.52
			c0.78,1.22,1.89,2.12,3.31,2.68s3.28,0.84,5.56,0.84h1.83c3.33,0,5.98-1.33,7.95-3.98c2.11,2.65,4.76,3.98,7.95,3.98h10.86V775.8
			H751.72z"/>
	</g>
</g>
</svg>
